<svg id="Layer_1" data-name="Layer 1" xmlns="http://www.w3.org/2000/svg" width="633.20001" height="186.2" viewBox="0 0 633.20001 186.2"><defs><style>.cls-1{fill:#0172c5;}.cls-2{fill:#011b40;}</style></defs><title>SafeHR__WhiteCobalt</title><path class="cls-1" d="M111.9,89.4c14.6.9,36-12.3,36-12.3-8.7-15.6-.4-23.9-.4-23.9s-11.3-1.8-13.7-19.6c0,0-24.9,1.7-36.2,11.2C102.8,31.3,96.8,7,96.8,7,79.2,10.4,73.9,0,73.9,0S68.7,10.2,51,7c0,0-6.1,24.2-.6,37.8C39.1,35.5,14.1,33.7,14.1,33.7,12,51.4.4,53.3.4,53.3s8.1,8-.4,23.9c0,0,21.2,13.2,35.9,12.2-12.4,7.9-21.8,31-21.8,31,16.2,7.5,14.4,19.1,14.4,19.1s10.2-5.2,22.6,7.8c0,0,19.1-16,22.7-30.3,3.7,14.2,22.8,30.3,22.8,30.3,12.2-13.1,22.6-7.8,22.6-7.8s-1.8-11.2,14.4-19.1C133.8,120.4,124.4,97.3,111.9,89.4ZM98.2,51.8a4.89444,4.89444,0,0,1,1.2-1.3c7.8-7.5,21.7-9.2,31.3-11.1.3,3.2,2,7,4.6,11.3-11,.8-29.4,4.6-43.4,18.2,1.2-3.4,2.9-8.2,5-14.6.1-.2.2-.5.3-.7A16.17953,16.17953,0,0,1,98.2,51.8ZM55.5,11.6c3.2.7,7.3.3,12.2-.9C65,21.4,63,40,71.7,57.5c-2.9-2.2-6.9-5.3-12.3-9.3-.2-.2-.4-.3-.6-.5a6.85055,6.85055,0,0,1-1.4-1.5,5.96826,5.96826,0,0,1-.9-1.5C51.6,35,54.3,21.3,55.5,11.6ZM5.8,74.3c1.6-2.8,2.5-6.9,2.9-11.8C18,68.3,35.2,76,54.5,73.2c-3,2.1-7.2,4.9-12.7,8.8-.2.1-.4.3-.6.4a15.04321,15.04321,0,0,1-1.8.9,13.63579,13.63579,0,0,1-1.7.4C26.9,85.2,14.6,78.5,5.8,74.3ZM69,113.6c-1.9,10.6-12.1,20.2-18.8,27.3-2.1-2.4-5.8-4.5-10.4-6.4,8.4-7.1,21.1-20.9,24.4-40.2,1.1,3.5,2.5,8.3,4.5,14.8.1.2.1.5.2.7a10.58006,10.58006,0,0,1,.3,2,11.01931,11.01931,0,0,1-.2,1.8Zm4.9-5c0-.1,0-.1-.1-.2C68.9,93.2,67,86.3,67,86.3s-7.2.5-23.2.5l.1-.1c13-9.4,19-13.3,19-13.3s-2.7-6.7-7.6-21.9l.1.1C68.4,61.1,74,65.5,74,65.5s5.6-4.6,18.5-14c0,.1,0,.1-.1.2C87.5,67,85,73.7,85,73.7s6.1,3.9,19,13.2h-.2c-16.1-.1-23.2-.4-23.2-.4S78.8,93.5,73.9,108.6Zm44.2,18.6C114,117,104.7,100.7,87.3,91.7c3.6,0,8.7.2,15.5.3h.8a8.80178,8.80178,0,0,1,2,.4,7.74074,7.74074,0,0,1,1.6.7c9.5,5.1,15.5,17.7,20.2,26.3C124.5,120.6,121.4,123.4,118.1,127.2Z"/><path class="cls-1" d="M536.2,90v94.5H514.3V145.8H471.4v38.7H449.5V90h21.9v37.3h42.9V90Z"/><path class="cls-1" d="M609.8,184.5l-18.2-26.3H571.5v26.3H549.6V90h40.9c8.4,0,15.6,1.4,21.8,4.2a32.21085,32.21085,0,0,1,14.2,11.9,32.867,32.867,0,0,1,5,18.2A30.92351,30.92351,0,0,1,612,154.2l21.2,30.4H609.8Zm-5.6-72.4c-3.4-2.8-8.4-4.3-15-4.3H571.4v32.9h17.8c6.6,0,11.6-1.4,15-4.3s5.1-6.9,5.1-12.2C609.4,119,607.6,114.9,604.2,112.1Z"/><path class="cls-2" d="M162.8,183.1a50.54,50.54,0,0,1-16.8-7.9l7.4-16.5a49.79582,49.79582,0,0,0,14.4,7.2,54.48546,54.48546,0,0,0,16.7,2.7c6.2,0,10.8-.9,13.8-2.8,3-1.8,4.5-4.3,4.5-7.4a7.262,7.262,0,0,0-2.6-5.6,18.99665,18.99665,0,0,0-6.8-3.6c-2.7-.9-6.5-1.9-11.1-3a155.62085,155.62085,0,0,1-17.7-5.1,29.31431,29.31431,0,0,1-11.8-8.2c-3.3-3.8-4.9-8.8-4.9-15.1a25.91142,25.91142,0,0,1,4.5-14.9,30.2605,30.2605,0,0,1,13.4-10.6q9-3.9,21.9-3.9a70.36187,70.36187,0,0,1,17.7,2.2,50.36246,50.36246,0,0,1,15.1,6.2l-6.8,16.6c-8.7-4.9-17.5-7.4-26.2-7.4-6.1,0-10.6,1-13.6,3a9.15754,9.15754,0,0,0-4.4,7.8q0,4.8,5.1,7.2c3.4,1.6,8.5,3.1,15.5,4.7a155.62087,155.62087,0,0,1,17.7,5.1,29.08189,29.08189,0,0,1,11.8,8.1c3.3,3.7,4.9,8.7,4.9,15a26.05393,26.05393,0,0,1-4.5,14.8c-3,4.5-7.5,8-13.6,10.6-6,2.6-13.4,3.9-22,3.9a82.28152,82.28152,0,0,1-21.6-3.1Z"/><path class="cls-2" d="M290.1,118.8c6,5.4,9,13.4,9,24.2v41.4H279.4v-9c-4,6.8-11.3,10.1-22.1,10.1a34.111,34.111,0,0,1-14.5-2.8,22.1153,22.1153,0,0,1-9.4-7.8,19.9028,19.9028,0,0,1-3.2-11.3c0-6.8,2.5-12.1,7.6-15.9,5.1-3.9,12.9-5.8,23.6-5.8H278c0-4.6-1.4-8.1-4.2-10.6s-7-3.7-12.6-3.7a36.72605,36.72605,0,0,0-11.4,1.8,31.512,31.512,0,0,0-9.5,4.9l-7.6-14.7a47.63207,47.63207,0,0,1,14.2-6.5,64.724,64.724,0,0,1,17.1-2.3c11.4,0,20,2.7,26.1,8Zm-18,50.1a13.2659,13.2659,0,0,0,5.9-7.4v-7.4H263.6c-8.6,0-13,2.8-13,8.5a7.6447,7.6447,0,0,0,3.2,6.4q3.15,2.4,8.7,2.4A18.0975,18.0975,0,0,0,272.1,168.9Z"/><path class="cls-2" d="M335.3,113.5h18.6v16.2H335.8v54.8H314.7V129.7H303.5V113.5h11.2v-3.2c0-8.3,2.5-14.8,7.4-19.7s11.8-7.3,20.7-7.3a38.2099,38.2099,0,0,1,9,1,21.98032,21.98032,0,0,1,7.1,2.9l-5.5,15.3a14.50393,14.50393,0,0,0-8.5-2.6q-9.6,0-9.6,10.5Z"/><path class="cls-2" d="M431.6,154.1H376.7a17.134,17.134,0,0,0,7,10.7q5.55,3.9,13.8,3.9a28.89227,28.89227,0,0,0,10.1-1.7,25.53238,25.53238,0,0,0,8.2-5.3L427,173.8q-10.2,11.7-30,11.7a47.17045,47.17045,0,0,1-21.7-4.8,34.9078,34.9078,0,0,1-14.6-13.3,38.8794,38.8794,0,0,1,0-38.5,35.81361,35.81361,0,0,1,13.9-13.4,40.84918,40.84918,0,0,1,19.8-4.8,40.16515,40.16515,0,0,1,19.3,4.6,33.23771,33.23771,0,0,1,13.6,13.2,39.15577,39.15577,0,0,1,4.9,19.9c-.2.3-.3,2.2-.6,5.7Zm-49.2-23.3a17.312,17.312,0,0,0-5.9,11.1h35.8a17.31533,17.31533,0,0,0-5.9-11,17.91638,17.91638,0,0,0-11.9-4.1,17.52858,17.52858,0,0,0-12.1,4Z"/></svg>